<svg xmlns="http://www.w3.org/2000/svg" width="240" height="240" viewBox="0 0 240 240" fill="none">
  <rect width="240" height="240" fill="#111b21"/>
  <g fill="#9cb1b9" fill-opacity="0.08">
    <circle cx="12" cy="12" r="1.1"/><circle cx="48" cy="20" r="1"/><circle cx="82" cy="14" r="1.1"/>
    <circle cx="116" cy="24" r="1"/><circle cx="156" cy="16" r="1.1"/><circle cx="190" cy="28" r="1"/>
    <circle cx="218" cy="12" r="1.1"/><circle cx="24" cy="52" r="1"/><circle cx="62" cy="58" r="1.1"/>
    <circle cx="92" cy="44" r="1"/><circle cx="132" cy="56" r="1.1"/><circle cx="170" cy="48" r="1"/>
    <circle cx="202" cy="60" r="1.1"/><circle cx="14" cy="90" r="1"/><circle cx="44" cy="102" r="1.1"/>
    <circle cx="80" cy="88" r="1"/><circle cx="120" cy="96" r="1.1"/><circle cx="160" cy="86" r="1"/>
    <circle cx="198" cy="100" r="1.1"/><circle cx="230" cy="92" r="1"/><circle cx="22" cy="136" r="1.1"/>
    <circle cx="58" cy="126" r="1"/><circle cx="96" cy="140" r="1.1"/><circle cx="138" cy="128" r="1"/>
    <circle cx="176" cy="142" r="1.1"/><circle cx="214" cy="132" r="1"/><circle cx="12" cy="176" r="1.1"/>
    <circle cx="50" cy="170" r="1"/><circle cx="88" cy="182" r="1.1"/><circle cx="126" cy="168" r="1"/>
    <circle cx="164" cy="178" r="1.1"/><circle cx="198" cy="170" r="1"/><circle cx="228" cy="184" r="1.1"/>
    <circle cx="26" cy="216" r="1"/><circle cx="66" cy="226" r="1.1"/><circle cx="104" cy="214" r="1"/>
    <circle cx="142" cy="224" r="1.1"/><circle cx="182" cy="214" r="1"/><circle cx="220" cy="228" r="1.1"/>
  </g>
</svg>
