<svg xmlns="http://www.w3.org/2000/svg" viewBox="0 0 1200 800" preserveAspectRatio="none">
  <rect width="1200" height="800" fill="#132028"/>
  <g stroke="#6b838c" stroke-opacity="0.35" fill="none">
    <path d="M-80 140 C160 80, 320 180, 560 130 C760 90, 970 180, 1280 120"/>
    <path d="M-80 220 C160 160, 320 260, 560 210 C760 170, 970 260, 1280 200"/>
    <path d="M-80 300 C160 240, 320 340, 560 290 C760 250, 970 340, 1280 280"/>
    <path d="M-80 380 C160 320, 320 420, 560 370 C760 330, 970 420, 1280 360"/>
    <path d="M-80 460 C160 400, 320 500, 560 450 C760 410, 970 500, 1280 440"/>
    <path d="M-80 540 C160 480, 320 580, 560 530 C760 490, 970 580, 1280 520"/>
    <path d="M-80 620 C160 560, 320 660, 560 610 C760 570, 970 660, 1280 600"/>
  </g>
</svg>
